<?xml version="1.0" encoding="utf-8"?>
<!-- Generator: Adobe Illustrator 23.1.0, SVG Export Plug-In . SVG Version: 6.00 Build 0)  -->
<svg version="1.1" id="Layer_1" xmlns="http://www.w3.org/2000/svg" xmlns:xlink="http://www.w3.org/1999/xlink" x="0px" y="0px"
	 viewBox="0 0 500 500" style="enable-background:new 0 0 500 500;" xml:space="preserve">
<style type="text/css">
	.st0{fill:#232136;}
	.st1{fill:#EAB09D;}
	.st2{fill:#FFD243;}
	.st3{fill:#CD3D0F;stroke:#B73513;stroke-miterlimit:10;}
	.st4{fill:#0082C9;stroke:#4D4D4D;stroke-width:2;stroke-miterlimit:10;}
	.st5{fill:#EAEAEA;}
	.st6{fill:none;stroke:#4D4D4D;stroke-width:3;stroke-linecap:round;stroke-miterlimit:10;}
	.st7{fill:url(#SVGID_1_);}
	.st8{fill:#4D4D4D;}
	.st9{fill:#FFFFFF;}
	.st10{fill:none;}
	.st11{fill:#FF7F14;}
	.st12{fill-rule:evenodd;clip-rule:evenodd;fill:#4D4D4D;}
	.st13{fill-rule:evenodd;clip-rule:evenodd;fill:url(#SVGID_2_);stroke:#E0B53D;stroke-miterlimit:10;}
</style>
<g>
	<g>
		<path class="st0" d="M250,343.3"/>
		<path class="st0" d="M250,343.3"/>
		<path class="st1" d="M410.2,306l12.6,18.3l20.3-14c11.4,5,24.7-0.1,29.8-11.6c0.6-1.4,1.1-2.8,1.4-4.3c1.8-8.1-1-16.5-7.3-21.9
			l0,0c-0.3-0.2-0.5-0.4-0.8-0.7c-0.7-0.5-1.4-0.9-2.3-1l0,0c-3.1-0.6-6,1.5-6.5,4.5l0,0c0,0.2-0.1,0.5-0.1,0.7
			c0,1.8,0.8,3.4,2.2,4.5c0.3,0.2,0.5,0.5,0.8,0.7c4.4,4.3,4.5,11.5,0.1,15.9c-4.3,4.4-11.5,4.5-15.9,0.1
			c-4.4-4.3-4.5-11.5-0.1-15.9c1.9-2,4.5-3.2,7.3-3.3c0.3,0,0.5,0,0.8,0c0.2,0,0.5,0,0.7,0c2.3-0.4,4.1-2.2,4.5-4.5
			c0-0.1,0-0.2,0.1-0.4c0.3-3.1-1.9-5.8-5-6.1c-0.2,0-0.4,0-0.6,0c-0.5,0-1.1,0-1.6,0.1c-12.4,1-21.7,11.9-20.7,24.3
			c0,0.3,0.1,0.7,0.1,1L410.2,306z"/>
		<path class="st2" d="M415.6,286c-0.1,0.1-0.1,0.1-0.2,0.1l-0.1-0.2c-3,2.7-6.2,5.2-9.7,7.2c-8.4,5-17.5,7.5-26.6,7.9
			c-0.1,0-0.3,0-0.4,0c-1.6,0.1-3.1,0-4.7,0c-0.7,0-1.3-0.1-1.9-0.2c-1-0.1-2.1-0.2-3.1-0.3c-1.1-0.2-2.2-0.4-3.3-0.6
			c-0.6-0.1-1.1-0.2-1.7-0.3c-1.6-0.4-3.2-0.8-4.7-1.3c-0.1,0-0.1,0-0.2,0c-8.6-2.9-16.7-7.9-23.3-15.1c-2.7-3-5.2-6.2-7.2-9.7
			c-1-1.7-1.9-3.4-2.7-5.2c-4.8-7.4-12.3-11.9-20.4-13.3c-0.4-0.1-0.7-0.1-1.1-0.2c-0.4-0.1-0.8-0.1-1.2-0.1
			c-0.8-0.1-1.5-0.1-2.3-0.1c0,0,0,0-0.1,0c-7.4-0.2-14.8,2.3-20.8,7.6c0,0,0.1,0.3,0.4,0.8c5.8,52.5,52.8,90.7,105.5,85.3
			c21.2-2.2,41-11.3,56.5-25.9L415.6,286z"/>
		<path class="st1" d="M492.5,294l-38.8,6.8l1.9,11.1l38.8-6.8c3.1-0.5,5.2-3.3,4.7-6.4c-0.5-3.1-3.3-5.2-6.4-4.7
			C492.6,294,492.6,294,492.5,294"/>
		<path class="st1" d="M480.2,284.8l-22.8,14.6l6.1,9.5l22.8-14.6c2.6-1.7,3.4-5.1,1.7-7.8C486.3,283.9,482.8,283.2,480.2,284.8
			L480.2,284.8z"/>
		<path class="st1" d="M89.8,306l-12.6,18.3l-20.3-14c-11.4,5-24.7-0.1-29.8-11.6c-0.6-1.4-1.1-2.8-1.4-4.3
			c-1.8-8.1,1-16.5,7.3-21.9l0,0c0.3-0.2,0.5-0.4,0.8-0.7c0.7-0.5,1.4-0.9,2.3-1l0,0c3.1-0.6,6,1.5,6.5,4.5l0,0
			c0,0.2,0.1,0.5,0.1,0.7c0,1.8-0.8,3.4-2.2,4.5c-0.3,0.2-0.5,0.5-0.8,0.7c-4.4,4.3-4.5,11.5-0.1,15.9c4.3,4.4,11.5,4.5,15.9,0.1
			c4.4-4.3,4.5-11.5,0.1-15.9c-1.9-2-4.5-3.2-7.3-3.3c-0.3,0-0.5,0-0.8,0c-0.2,0-0.5,0-0.7,0c-2.3-0.4-4.1-2.2-4.5-4.5
			c0-0.1,0-0.2-0.1-0.4c-0.3-3.1,1.9-5.8,5-6.1c0.2,0,0.4,0,0.6,0c0.5,0,1.1,0,1.6,0.1c12.4,1,21.7,11.9,20.7,24.3
			c0,0.3-0.1,0.7-0.1,1L89.8,306z"/>
		<path class="st2" d="M84.4,286c0.1,0.1,0.1,0.1,0.2,0.1l0.1-0.2c3,2.7,6.2,5.2,9.7,7.2c8.4,5,17.5,7.5,26.6,7.9c0.1,0,0.3,0,0.4,0
			c1.6,0.1,3.1,0,4.7,0c0.7,0,1.3-0.1,1.9-0.2c1-0.1,2.1-0.2,3.1-0.3c1.1-0.2,2.2-0.4,3.3-0.6c0.6-0.1,1.1-0.2,1.7-0.3
			c1.6-0.4,3.2-0.8,4.7-1.3c0.1,0,0.1,0,0.2,0c8.6-2.9,16.7-7.9,23.3-15.1c2.7-3,5.2-6.2,7.2-9.7c1-1.7,1.9-3.4,2.7-5.2
			c4.8-7.4,12.3-11.9,20.4-13.3c0.4-0.1,0.7-0.1,1.1-0.2c0.4-0.1,0.8-0.1,1.2-0.1c0.8-0.1,1.5-0.1,2.3-0.1c0,0,0,0,0.1,0
			c7.4-0.2,14.8,2.3,20.8,7.6c0,0-0.1,0.3-0.4,0.8c-5.8,52.5-52.8,90.7-105.5,85.3c-21.2-2.2-41-11.3-56.5-25.9L84.4,286z"/>
		<path class="st1" d="M7.5,294l38.8,6.8l-1.9,11.1l-38.8-6.8c-3.1-0.5-5.2-3.3-4.7-6.4c0.5-3.1,3.3-5.2,6.4-4.7
			C7.4,294,7.4,294,7.5,294"/>
		<path class="st1" d="M19.8,284.8l22.8,14.6l-6.1,9.5l-22.8-14.6c-2.6-1.7-3.4-5.1-1.7-7.8C13.7,283.9,17.2,283.2,19.8,284.8
			L19.8,284.8z"/>
		<rect x="183.5" y="286.1" class="st2" width="133.1" height="96.1"/>
		<rect x="183.5" y="380.8" class="st3" width="133.1" height="10.6"/>
		<path class="st3" d="M205.7,469.8h-55.4c-24.6,0-44.8-17.6-44.8-39.2c0-10.8,5-20.6,13.2-27.7c8.1-7.1,19.3-11.5,31.6-11.5h88.9
			C227.1,406.1,201.9,440.9,205.7,469.8z"/>
		<path class="st2" d="M394.5,430.6c0,10.8-5,20.6-13.2,27.7c-8.1,7.1-19.3,11.5-31.6,11.5h-144c-3.9-28.9,21.4-63.7,33.5-78.5
			h110.5C374.3,391.3,394.5,409,394.5,430.6z"/>
		<circle class="st4" cx="250" cy="176.7" r="77.7"/>
		<path class="st5" d="M250,327.8L250,327.8c-34,0-61.7-27.8-61.7-61.7v-43.7c0-27.1,22.2-49.3,49.3-49.3h24.8
			c27.1,0,49.3,22.2,49.3,49.3V266C311.7,300,284,327.8,250,327.8z"/>
		<path class="st1" d="M250,277.3L250,277.3c-31.3,0-56.9-25.6-56.9-56.9v-16.1c0-31.3,25.6-56.9,56.9-56.9h0
			c31.3,0,56.9,25.6,56.9,56.9v16.1C306.9,251.7,281.3,277.3,250,277.3z"/>
		<path class="st6" d="M209.8,203.4c8.7-4.3,17.3-4.3,26,0"/>
		<path class="st6" d="M264.2,203.4c8.7-4.3,17.3-4.3,26,0"/>
		<g>
			<path class="st5" d="M250.5,250.1c7.3-15.4-11.7-28.7-27.8-14.6c-29.4,25.7-43-8.9-45.8,0.6c-3.4,11.6,11.2,34.3,33.7,34.3
				C228.6,270.5,244.3,263.2,250.5,250.1z"/>
			<path class="st5" d="M249.5,250.1c-7.3-15.4,11.7-28.7,27.8-14.6c29.4,25.7,43-8.9,45.8,0.6c3.4,11.6-11.2,34.3-33.7,34.3
				C271.4,270.5,255.7,263.2,249.5,250.1z"/>
		</g>
	</g>
	<g>
		<linearGradient id="SVGID_1_" gradientUnits="userSpaceOnUse" x1="11.3895" y1="184.5328" x2="127.3838" y2="184.5328">
			<stop  offset="0" style="stop-color:#F9D56E"/>
			<stop  offset="0.8971" style="stop-color:#FFD243"/>
		</linearGradient>
		<path class="st7" d="M113.8,217.7H25c-7.5,0-13.6-6.1-13.6-13.6v-52.7h116v52.7C127.4,211.6,121.3,217.7,113.8,217.7z"/>
		<path class="st8" d="M115,125.6H23.7c-8.1,0-14.6,6.5-14.6,14.6v15.3v50.4c0,8.1,6.5,14.6,14.6,14.6H115c8.1,0,14.6-6.5,14.6-14.6
			v-50.4v-15.3C129.6,132.2,123.1,125.6,115,125.6 M124.3,206c0,5.2-4.1,9.3-9.3,9.3H23.7c-5.2,0-9.3-4.1-9.3-9.3v-50.4h109.8V206z
			 M124.3,150.1H14.5v-9.9c0-5.2,4.1-9.3,9.3-9.3H115c5.2,0,9.3,4.1,9.3,9.3V150.1z"/>
		<path class="st8" d="M23.9,134.1c3.7,0,6.8,3,6.8,6.8c0,3.7-3,6.8-6.8,6.8c-3.7,0-6.8-3-6.8-6.8C17.1,137.1,20.1,134.1,23.9,134.1
			"/>
		<path class="st8" d="M42.3,134.1c3.7,0,6.8,3,6.8,6.8c0,3.7-3,6.8-6.8,6.8c-3.7,0-6.8-3-6.8-6.8C35.5,137.1,38.6,134.1,42.3,134.1
			"/>
		<path class="st8" d="M60.7,134.1c3.7,0,6.8,3,6.8,6.8c0,3.7-3,6.8-6.8,6.8c-3.7,0-6.8-3-6.8-6.8C54,137.1,57,134.1,60.7,134.1"/>
		<path class="st9" d="M86.9,204.4c0.5,0.5,1.2,0.8,1.9,0.8s1.3-0.3,1.9-0.8l17-17c0.5-0.5,0.8-1.2,0.8-1.9c0-0.7-0.3-1.3-0.8-1.9
			l-17-17.1c-1.1-1.1-2.7-1.1-3.7,0c-1.1,1.1-1.1,2.7,0,3.7l15.1,15.1l-15.1,15.1C85.8,201.6,85.8,203.3,86.9,204.4"/>
		<path class="st9" d="M48.1,204.4c0.5,0.5,1.2,0.8,1.9,0.8s1.3-0.3,1.9-0.8c1.1-1.1,1.1-2.7,0-3.7l-15.1-15.3l15.1-15
			c1.1-1.1,1.1-2.7,0-3.7c-1.1-1.1-2.7-1.1-3.7,0l-17,16.8c-0.5,0.5-0.8,1.2-0.8,1.9c0,0.7,0.3,1.3,0.8,1.9L48.1,204.4z"/>
		<path class="st9" d="M59,204.8c0.4,0.3,0.8,0.3,1.2,0.3c0.9,0,1.9-0.5,2.4-1.5l18.3-34c0.7-1.3,0.3-2.9-1.1-3.6
			c-1.3-0.7-2.9-0.3-3.6,1.1L58,201.2C57.2,202.5,57.7,204.1,59,204.8"/>
		<rect x="9.1" y="125.6" class="st10" width="120.4" height="94.8"/>
	</g>
	<g>
		<path class="st11" d="M104.2,65.5h1.7c0.4,0,0.8-0.4,0.8-0.8v-5.5c0-0.4-0.4-0.8-0.8-0.8h-2c-9.8,0-15.4,5.1-15.4,13.9
			c0,2.8,0.4,5.6,0.8,8.4c0.4,2.7,0.8,5.5,0.8,8.3c0,3.3-0.9,6.6-7.3,6.6c-0.4,0-0.8,0.4-0.8,0.8v5.1c0,0.4,0.4,0.8,0.8,0.8
			c6.5,0,7.3,3.8,7.3,6.7c0,2-0.2,4-0.5,6.1c-0.1,0.6-0.1,1.2-0.2,1.8c-0.6,3.4-0.9,6-0.9,8.3c0,9.3,5.4,14.5,15.3,14.5h2.1
			c0.4,0,0.8-0.4,0.8-0.8v-5.5c0-0.4-0.4-0.8-0.8-0.8h-1.7c-5-0.1-7.2-2.5-7.2-7.9c0-1.9,0.3-3.8,0.5-5.6l0.2-1.4
			c0.4-2.5,0.8-5,0.8-7.8c0.1-5.4-2-9.2-5.9-11c4-1.8,6-5.5,5.9-10.9c0-2.7-0.4-5-0.8-7.4l-0.2-1.7C97.3,76.8,97,75,97,73.3
			C97,67.9,99.2,65.6,104.2,65.5"/>
		<path class="st11" d="M176.3,95.5c-6.4,0-7.3-3.3-7.3-6.6c0-2.7,0.4-5.5,0.8-8.3c0.4-2.8,0.8-5.6,0.8-8.4
			c0-8.8-5.6-13.9-15.4-13.9h-2c-0.4,0-0.8,0.4-0.8,0.8v5.5c0,0.4,0.4,0.8,0.8,0.8h1.7c5,0.1,7.2,2.4,7.2,7.8c0,1.8-0.2,3.6-0.5,5.5
			l-0.2,1.7c-0.4,2.5-0.8,4.8-0.8,7.5c-0.1,5.4,1.9,9.1,5.9,10.9c-3.9,1.8-6,5.6-5.9,11c0,2.8,0.4,5.3,0.8,7.8l0.2,1.4
			c0.2,1.9,0.5,3.8,0.5,5.6c0,5.4-2.2,7.8-7.2,7.9h-1.7c-0.4,0-0.8,0.4-0.8,0.8v5.5c0,0.4,0.4,0.8,0.8,0.8h2.1
			c9.9,0,15.3-5.1,15.3-14.5c0-2.9-0.4-5.9-0.8-8.3l0-0.3c-0.4-2.7-0.7-5.2-0.7-7.7c0-2.9,0.8-6.7,7.3-6.7c0.4,0,0.8-0.4,0.8-0.8
			v-5.1C177.1,95.9,176.8,95.5,176.3,95.5"/>
		<path class="st11" d="M114.4,103.6c-2.5,0-4.2-2-4.2-4.6s1.8-4.6,4.4-4.6s4.3,1.9,4.3,4.6C118.8,101.6,117.1,103.6,114.4,103.6
			L114.4,103.6z"/>
		<path class="st11" d="M129.5,103.6c-2.5,0-4.2-2-4.2-4.6s1.8-4.6,4.4-4.6s4.3,1.9,4.3,4.6C133.9,101.6,132.2,103.6,129.5,103.6
			L129.5,103.6z"/>
		<path class="st11" d="M144.6,103.6c-2.5,0-4.2-2-4.2-4.6s1.8-4.6,4.4-4.6c2.6,0,4.3,1.9,4.3,4.6
			C149,101.6,147.3,103.6,144.6,103.6L144.6,103.6z"/>
	</g>
	<g>
		<path class="st12" d="M427,145.8c0.4,0.2,1,0.4,1.4,0.6c1,0.4,2.1,0.4,3.1-0.2l6.9-4.1c1-0.8,2.3-0.6,3.3,0.4l4.6,4.6
			c0.8,0.8,1,2.1,0.4,3.3l-4.1,6.9c-0.6,1-0.6,2.1-0.2,3.1c0.2,0.4,0.4,0.8,0.6,1.4c0.4,1,1.2,1.7,2.3,1.9l7.7,2.1
			c1.2,0.2,2.1,1.4,2.1,2.7v6.4c0,1.4-1,2.3-2.1,2.7l-7.7,1.9c-1.2,0.4-1.9,1.2-2.3,2.1c-0.2,0.4-0.4,1-0.6,1.4
			c-0.4,1-0.4,2.1,0.2,3.1l4.1,6.9c0.6,1,0.4,2.3-0.4,3.3l-4.6,4.6c-1,0.8-2.3,1-3.3,0.4l-6.9-4.1c-1-0.6-2.1-0.6-3.1-0.2
			c-0.4,0.2-1,0.4-1.4,0.6c-1,0.4-1.7,1.2-2.1,2.3l-1.9,7.7c-0.4,1.2-1.4,2.1-2.7,2.1h-6.4c-1.4,0-2.5-1-2.7-2.1l-2.1-7.7
			c-0.2-1.2-1-1.9-1.9-2.3c-0.6-0.2-1-0.4-1.4-0.6c-1.2-0.4-2.1-0.4-3.1,0.2l-6.9,4.1c-1.2,0.6-2.5,0.4-3.3-0.4l-4.6-4.6
			c-1-1-1.2-2.3-0.4-3.3l4.1-6.9c0.6-1,0.6-2.1,0.2-3.1c-0.2-0.4-0.4-1-0.6-1.4c-0.4-1-1.2-1.7-2.3-2.1l-7.7-1.9
			c-1.4-0.4-2.1-1.4-2.1-2.7v-6.4c0-1.4,0.8-2.5,2.1-2.7l7.7-2.1c1.2-0.2,1.9-1,2.3-1.9c0.2-0.6,0.4-1,0.6-1.4
			c0.4-1.2,0.4-2.1-0.2-3.1l-4.1-6.9c-0.8-1.2-0.6-2.5,0.4-3.3l4.6-4.6c0.8-1,2.1-1.2,3.3-0.4l6.9,4.1c1,0.6,2.1,0.6,3.1,0.2
			c0.4-0.2,0.8-0.4,1.4-0.6c1-0.4,1.7-1.2,1.9-2.3l2.1-7.7c0.2-1.4,1.4-2.1,2.7-2.1h6.4c1.4,0,2.3,0.8,2.7,2.1l1.9,7.7
			C425.3,144.6,426,145.4,427,145.8 M417,153.5c10,0,18.1,8.1,18.1,18.1s-8.1,18.1-18.1,18.1s-18.1-8.1-18.1-18.1
			S406.9,153.5,417,153.5"/>
		<linearGradient id="SVGID_2_" gradientUnits="userSpaceOnUse" x1="320.5641" y1="84.8569" x2="429.9574" y2="84.8569">
			<stop  offset="0" style="stop-color:#F9D56E"/>
			<stop  offset="0.8971" style="stop-color:#FFD243"/>
		</linearGradient>
		<path class="st13" d="M389.5,47.6c0.6,0.3,1.4,0.6,1.9,0.8c1.4,0.6,3,0.6,4.4-0.3l10-5.8c1.4-1.1,3.3-0.8,4.7,0.6l6.6,6.6
			c1.1,1.1,1.4,3,0.6,4.7l-5.8,10c-0.8,1.4-0.8,3-0.3,4.4c0.3,0.6,0.6,1.1,0.8,1.9c0.6,1.4,1.7,2.5,3.3,2.8l11.1,3
			c1.7,0.3,3,1.9,3,3.9v9.1c0,1.9-1.4,3.3-3,3.9l-11.1,2.8c-1.7,0.6-2.8,1.7-3.3,3c-0.3,0.6-0.6,1.4-0.8,1.9c-0.6,1.4-0.6,3,0.3,4.4
			l5.8,10c0.8,1.4,0.6,3.3-0.6,4.7l-6.6,6.6c-1.4,1.1-3.3,1.4-4.7,0.6l-10-5.8c-1.4-0.8-3-0.8-4.4-0.3c-0.6,0.3-1.4,0.6-1.9,0.8
			c-1.4,0.6-2.5,1.7-3,3.3l-2.8,11.1c-0.6,1.7-1.9,3-3.9,3h-9.1c-1.9,0-3.6-1.4-3.9-3l-3-11.1c-0.3-1.7-1.4-2.8-2.8-3.3
			c-0.8-0.3-1.4-0.6-1.9-0.8c-1.7-0.6-3-0.6-4.4,0.3l-10,5.8c-1.7,0.8-3.6,0.6-4.7-0.6l-6.6-6.6c-1.4-1.4-1.7-3.3-0.6-4.7l5.8-10
			c0.8-1.4,0.8-3,0.3-4.4c-0.3-0.6-0.6-1.4-0.8-1.9c-0.6-1.4-1.7-2.5-3.3-3l-11.1-2.8c-1.9-0.6-3-1.9-3-3.9v-9.1
			c0-1.9,1.1-3.6,3-3.9l11.1-3c1.7-0.3,2.8-1.4,3.3-2.8c0.3-0.8,0.6-1.4,0.8-1.9c0.6-1.7,0.6-3-0.3-4.4l-5.8-10
			c-1.1-1.7-0.8-3.6,0.6-4.7l6.6-6.6c1.1-1.4,3-1.7,4.7-0.6l10,5.8c1.4,0.8,3,0.8,4.4,0.3c0.6-0.3,1.1-0.6,1.9-0.8
			c1.4-0.6,2.5-1.7,2.8-3.3l3-11.1c0.3-1.9,1.9-3,3.9-3h9.1c1.9,0,3.3,1.1,3.9,3l2.8,11.1C387,45.9,388.1,47.1,389.5,47.6
			 M375.1,58.7c14.4,0,26,11.6,26,26s-11.6,26-26,26c-14.4,0-26-11.6-26-26S360.7,58.7,375.1,58.7"/>
	</g>
</g>
</svg>
